<?xml version="1.0" encoding="UTF-8" standalone="yes"?>
<svg xmlns="http://www.w3.org/2000/svg"
	version="1.1"
	width="40"
	height="40">
	<path fill="#fd7b34"
		  d="m 36.625,7.025625 h -9.620625 a 3.38,3.38 0 0 0 -3.37625,3.375625 v 8.424375 h -5.005 v -4.73875 A 3.239375,3.239375 0 0 0 15.3875,10.849375 H 9.313125 A 3.24,3.24 0 0 0 6.076875,14.08625 V 18.825 h -3.0225 A 3.0575,3.0575 0 0 0 0,21.879375 v 4.54 a 3.058125,3.058125 0 0 0 3.054375,3.055 h 4.54 a 3.058125,3.058125 0 0 0 3.05375,-3.055 v -3.0225 h 3.40375 v 6.18125 a 3.39875,3.39875 0 0 0 3.395,3.39625 H 24.805 A 3.398125,3.398125 0 0 0 28.19875,29.57875 V 23.396875 H 36.625 c 1.860625,0 3.375,-1.514375 3.375,-3.375625 v -9.62 A 3.38,3.38 0 0 0 36.625,7.025625 m 0,2.285625 c 0.6,0 1.089375,0.490625 1.089375,1.09 v 9.62 c 0,0.599375 -0.49,1.09 -1.089375,1.09 h -9.6025 l -0.025,0.025 a 1.3475,1.3475 0 0 0 -1.056875,1.058125 l -0.02688,0.025 v 7.359375 a 1.1125,1.1125 0 0 1 -1.10875,1.11 H 17.44687 c -0.61,0 -1.109375,-0.5 -1.109375,-1.11 V 22.22 l -0.02562,-0.025 a 1.348125,1.348125 0 0 0 -1.05625,-1.056875 l -0.02625,-0.02688 H 9.470625 L 9.445,21.13625 a 1.350625,1.350625 0 0 0 -1.0575,1.058125 l -0.025,0.025 v 4.2 c 0,0.4225 -0.34625,0.76875 -0.768125,0.76875 h -4.54 c -0.423125,0 -0.76875,-0.34625 -0.76875,-0.76875 v -4.54 c 0,-0.42125 0.345625,-0.76875 0.76875,-0.76875 h 4.19875 l 0.025625,-0.025 A 1.35,1.35 0 0 0 8.33625,20.02875 L 8.3625,20.0025 v -5.915625 c 0,-0.5225 0.4275,-0.95125 0.950625,-0.95125 h 6.075 c 0.521875,0 0.95,0.42875 0.95,0.95125 V 20.0025 l 0.025,0.025 c 0.105625,0.53375 0.525,0.9525 1.058125,1.05875 l 0.02562,0.025 H 24.805 l 0.02625,-0.025 a 1.346875,1.346875 0 0 0 1.05625,-1.0575 l 0.02625,-0.02625 v -9.60125 c 0,-0.599375 0.49125,-1.09 1.090625,-1.09 H 36.625"/>
</svg>
